<?xml version="1.0" encoding="UTF-8" standalone="no"?>
<svg
   xmlns:dc="http://purl.org/dc/elements/1.1/"
   xmlns:cc="http://creativecommons.org/ns#"
   xmlns:rdf="http://www.w3.org/1999/02/22-rdf-syntax-ns#"
   xmlns:svg="http://www.w3.org/2000/svg"
   xmlns="http://www.w3.org/2000/svg"
   viewBox="0 0 1280 720"
   height="720"
   width="1280"
   xml:space="preserve"
   id="svg2"
   version="1.1"><metadata
     id="metadata8"><rdf:RDF><cc:Work
         rdf:about=""><dc:format>image/svg+xml</dc:format><dc:type
           rdf:resource="http://purl.org/dc/dcmitype/StillImage" /></cc:Work></rdf:RDF></metadata><defs
     id="defs6"><clipPath
       id="clipPath18"
       clipPathUnits="userSpaceOnUse"><path
         style="clip-rule:evenodd"
         id="path16"
         d="M 0,1.2207e-4 H 960 V 540.00012 H 0 Z" /></clipPath><clipPath
       id="clipPath28"
       clipPathUnits="userSpaceOnUse"><path
         style="clip-rule:evenodd"
         id="path26"
         d="M 851.4,205.2 H 960 V 392.4 H 851.4 Z" /></clipPath><clipPath
       id="clipPath38"
       clipPathUnits="userSpaceOnUse"><path
         id="path36"
         d="M 0,0 H 55.44 V 51.846 H 0 Z" /></clipPath><clipPath
       id="clipPath52"
       clipPathUnits="userSpaceOnUse"><path
         style="clip-rule:evenodd"
         id="path50"
         d="M 0,51.846 V -0.5944 H 55.32 V 51.846" /></clipPath><clipPath
       id="clipPath62"
       clipPathUnits="userSpaceOnUse"><path
         style="clip-rule:evenodd"
         id="path60"
         d="M 0,51.846 V -0.5944 H 55.32 V 51.846" /></clipPath><clipPath
       id="clipPath72"
       clipPathUnits="userSpaceOnUse"><path
         style="clip-rule:evenodd"
         id="path70"
         d="M 0,51.846 V -0.5944 H 55.32 V 51.846" /></clipPath><clipPath
       id="clipPath82"
       clipPathUnits="userSpaceOnUse"><path
         style="clip-rule:evenodd"
         id="path80"
         d="M 884.28,415.8 H 960 V 540 h -75.72 z" /></clipPath><clipPath
       id="clipPath92"
       clipPathUnits="userSpaceOnUse"><path
         id="path90"
         d="M 0,0 H 55.44 V 51.846 H 0 Z" /></clipPath><clipPath
       id="clipPath106"
       clipPathUnits="userSpaceOnUse"><path
         style="clip-rule:evenodd"
         id="path104"
         d="M 0,51.846 V -0.5944 H 55.32 V 51.846" /></clipPath><clipPath
       id="clipPath116"
       clipPathUnits="userSpaceOnUse"><path
         style="clip-rule:evenodd"
         id="path114"
         d="M 0,51.846 V -0.5944 H 55.32 V 51.846" /></clipPath><clipPath
       id="clipPath126"
       clipPathUnits="userSpaceOnUse"><path
         style="clip-rule:evenodd"
         id="path124"
         d="M 0,51.846 V -0.5944 H 55.32 V 51.846" /></clipPath><clipPath
       id="clipPath136"
       clipPathUnits="userSpaceOnUse"><path
         style="clip-rule:evenodd"
         id="path134"
         d="M 884.28,1.2207e-4 H 960 V 181.68012 h -75.72 z" /></clipPath><clipPath
       id="clipPath146"
       clipPathUnits="userSpaceOnUse"><path
         id="path144"
         d="M 0,0 H 55.44 V 51.846 H 0 Z" /></clipPath><clipPath
       id="clipPath160"
       clipPathUnits="userSpaceOnUse"><path
         style="clip-rule:evenodd"
         id="path158"
         d="M 0,51.846 V -0.5944 H 55.32 V 51.846" /></clipPath><clipPath
       id="clipPath170"
       clipPathUnits="userSpaceOnUse"><path
         style="clip-rule:evenodd"
         id="path168"
         d="M 0,51.846 V -0.5944 H 55.32 V 51.846" /></clipPath><clipPath
       id="clipPath180"
       clipPathUnits="userSpaceOnUse"><path
         style="clip-rule:evenodd"
         id="path178"
         d="M 0,51.846 V -0.5944 H 55.32 V 51.846" /></clipPath></defs><g
     transform="matrix(1.3333333,0,0,-1.3333333,0,720)"
     id="g10"><g
       id="g12"><g
         clip-path="url(#clipPath18)"
         id="g14"><path
           id="path20"
           style="fill:#ffffff;fill-opacity:1;fill-rule:evenodd;stroke:none"
           d="M 0,6.1035e-5 H 960 V 540.00006 H 0 Z" /></g></g><g
       id="g22"><g
         clip-path="url(#clipPath28)"
         id="g24"><g
           transform="matrix(2.75,-1.88e-7,-7.54e-7,2.6,851.4,205.2)"
           id="g30"><g
             transform="scale(1.2987,1.3887)"
             id="g32"><g
               clip-path="url(#clipPath38)"
               id="g34"><g
                 id="g40"><g
                   id="g42"><g
                     id="g44" /></g><g
                   id="g46"><g
                     clip-path="url(#clipPath52)"
                     id="g48"><path
                       id="path54"
                       style="fill:#30a766;fill-opacity:1;fill-rule:nonzero;stroke:none"
                       d="m 53.969,0.005764 v 0 H 1.3511 C 0.60049,0.005764 0,0.68096 0,1.4312 v 9.3778 c 0,0.825 0.60049,1.425 1.3511,1.425 H 53.969 c 0.751,0 1.427,-0.6 1.427,-1.425 V 1.4312 c 0,-0.75024 -0.676,-1.425436 -1.427,-1.425436 z" /></g></g><g
                   id="g56"><g
                     clip-path="url(#clipPath62)"
                     id="g58"><path
                       id="path64"
                       style="fill:#4a7bef;fill-opacity:1;fill-rule:nonzero;stroke:none"
                       d="m 53.969,20.037 v 0 H 1.3511 C 0.60049,20.037 0,20.712 0,21.462 v 9.378 c 0,0.75 0.60049,1.425 1.3511,1.425 H 53.969 c 0.751,0 1.427,-0.675 1.427,-1.425 v -9.378 c 0,-0.75 -0.676,-1.425 -1.427,-1.425 z" /></g></g><g
                   id="g66"><g
                     clip-path="url(#clipPath72)"
                     id="g68"><path
                       id="path74"
                       style="fill:#af6bc0;fill-opacity:1;fill-rule:nonzero;stroke:none"
                       d="m 53.969,40.067 v 0 H 1.3511 C 0.60049,40.067 0,40.743 0,41.493 v 9.377 c 0,0.751 0.60049,1.351 1.3511,1.351 H 53.969 c 0.751,0 1.427,-0.6 1.427,-1.351 v -9.377 c 0,-0.75 -0.676,-1.426 -1.427,-1.426 z" /></g></g></g></g></g></g></g></g><g
       id="g76"><g
         clip-path="url(#clipPath82)"
         id="g78"><g
           transform="matrix(2.75,-3.77e-7,-7.54e-7,2.6,884.28,415.8)"
           id="g84"><g
             transform="scale(1.2987,1.3887)"
             id="g86"><g
               clip-path="url(#clipPath92)"
               id="g88"><g
                 id="g94"><g
                   id="g96"><g
                     id="g98" /></g><g
                   id="g100"><g
                     clip-path="url(#clipPath106)"
                     id="g102"><path
                       id="path108"
                       style="fill:#30a766;fill-opacity:1;fill-rule:nonzero;stroke:none"
                       d="m 53.969,0.005764 v 0 H 1.3511 C 0.60049,0.005764 0,0.68096 0,1.4312 v 9.3778 c 0,0.825 0.60049,1.425 1.3511,1.425 H 53.969 c 0.751,0 1.427,-0.6 1.427,-1.425 V 1.4312 c 0,-0.75024 -0.676,-1.425436 -1.427,-1.425436 z" /></g></g><g
                   id="g110"><g
                     clip-path="url(#clipPath116)"
                     id="g112"><path
                       id="path118"
                       style="fill:#4a7bef;fill-opacity:1;fill-rule:nonzero;stroke:none"
                       d="m 53.969,20.037 v 0 H 1.3511 C 0.60049,20.037 0,20.712 0,21.462 v 9.378 c 0,0.75 0.60049,1.425 1.3511,1.425 H 53.969 c 0.751,0 1.427,-0.675 1.427,-1.425 v -9.378 c 0,-0.75 -0.676,-1.425 -1.427,-1.425 z" /></g></g><g
                   id="g120"><g
                     clip-path="url(#clipPath126)"
                     id="g122"><path
                       id="path128"
                       style="fill:#af6bc0;fill-opacity:1;fill-rule:nonzero;stroke:none"
                       d="m 53.969,40.067 v 0 H 1.3511 C 0.60049,40.067 0,40.743 0,41.493 v 9.377 c 0,0.751 0.60049,1.351 1.3511,1.351 H 53.969 c 0.751,0 1.427,-0.6 1.427,-1.351 v -9.377 c 0,-0.75 -0.676,-1.426 -1.427,-1.426 z" /></g></g></g></g></g></g></g></g><g
       id="g130"><g
         clip-path="url(#clipPath136)"
         id="g132"><g
           transform="matrix(2.75,0,-7.54e-7,2.6,884.28,-5.52)"
           id="g138"><g
             transform="scale(1.2987,1.3887)"
             id="g140"><g
               clip-path="url(#clipPath146)"
               id="g142"><g
                 id="g148"><g
                   id="g150"><g
                     id="g152" /></g><g
                   id="g154"><g
                     clip-path="url(#clipPath160)"
                     id="g156"><path
                       id="path162"
                       style="fill:#30a766;fill-opacity:1;fill-rule:nonzero;stroke:none"
                       d="m 53.969,0.005764 v 0 H 1.3511 C 0.60049,0.005764 0,0.68096 0,1.4312 v 9.3778 c 0,0.825 0.60049,1.425 1.3511,1.425 H 53.969 c 0.751,0 1.427,-0.6 1.427,-1.425 V 1.4312 c 0,-0.75024 -0.676,-1.425436 -1.427,-1.425436 z" /></g></g><g
                   id="g164"><g
                     clip-path="url(#clipPath170)"
                     id="g166"><path
                       id="path172"
                       style="fill:#4a7bef;fill-opacity:1;fill-rule:nonzero;stroke:none"
                       d="m 53.969,20.037 v 0 H 1.3511 C 0.60049,20.037 0,20.712 0,21.462 v 9.378 c 0,0.75 0.60049,1.425 1.3511,1.425 H 53.969 c 0.751,0 1.427,-0.675 1.427,-1.425 v -9.378 c 0,-0.75 -0.676,-1.425 -1.427,-1.425 z" /></g></g><g
                   id="g174"><g
                     clip-path="url(#clipPath180)"
                     id="g176"><path
                       id="path182"
                       style="fill:#af6bc0;fill-opacity:1;fill-rule:nonzero;stroke:none"
                       d="m 53.969,40.067 v 0 H 1.3511 C 0.60049,40.067 0,40.743 0,41.493 v 9.377 c 0,0.751 0.60049,1.351 1.3511,1.351 H 53.969 c 0.751,0 1.427,-0.6 1.427,-1.351 v -9.377 c 0,-0.75 -0.676,-1.426 -1.427,-1.426 z" /></g></g></g></g></g></g></g></g></g></svg>